<?xml version="1.0" encoding="utf-8"?>
<!-- Generator: Adobe Illustrator 15.1.0, SVG Export Plug-In . SVG Version: 6.00 Build 0)  -->
<!DOCTYPE svg PUBLIC "-//W3C//DTD SVG 1.1//EN" "http://www.w3.org/Graphics/SVG/1.1/DTD/svg11.dtd">
<svg version="1.1" id="Layer_1" xmlns="http://www.w3.org/2000/svg" xmlns:xlink="http://www.w3.org/1999/xlink" x="0px" y="0px"
	 width="1946px" height="846px" viewBox="102.113 329.318 1946 846" enable-background="new 102.113 329.318 1946 846"
	 xml:space="preserve">
<g transform="translate(0.000000,1536.000000) scale(0.100000,-0.100000)">
	<path d="M11549.999,11607.996c-2.998-2.998-57.002-7.998-120-12.002c-577.002-31.992-1277.002-192.998-1817.002-417.998
		c-402.002-167.002-737.002-362.002-1037.998-603.994c-212.998-170-370.996-339.004-497.998-531.006
		c-176.006-265-251.006-500.996-249.004-780c2.002-262.998,112.998-543.994,291.006-735c198.994-215.996,546.992-325,950.996-300
		c69.004,5,125.996,7.002,127.998,6.006c2.002-1.006-13.994-12.002-35-25c-173.994-105-775.996-502.001-1057.998-698.007
		c-775.996-537.998-1277.998-930-1707.998-1335.996c-89.004-84.004-171.006-164.004-182.002-177.002
		c-10-12.002-62.002-68.994-115-123.994c-212.002-223.008-420-495-572.998-749.004c-100-165-141.006-247.002-207.002-410
		c-140-350-179.004-580-120-712.998c40.996-91.006,92.002-124.004,155-97.998c77.998,32.998,137.002,127.998,184.004,295.996
		c123.994,439.004,381.992,885,765,1319.004c353.994,401.992,795,800.996,1425.996,1290.996c324.004,252.002,765.996,580,1065,790
		c295.996,209.003,405,282.998,850,582.001c1297.998,870.996,2185.996,1527.001,2599.004,1917.998
		c432.998,410,614.999,687.002,618.993,945c2.002,99.004-18.994,169.004-73.993,250
		c-103.008,150.996-333.008,245.996-704.004,290.996C11964.999,11599.998,11559.003,11617,11549.999,11607.996z
		 M11904.999,11349.998c392.998-32.998,640-105.996,707.998-207.002c166.006-248.994-282.998-803.994-1157.998-1428.994
		c-540-387.002-1080.996-746.006-1885-1251.006l-315-197.998h-225c-195.996,0-237.998,2.998-327.998,22.998
		c-412.002,90-637.002,302.998-747.998,707.002c-25,90-28.008,115.996-28.008,255c1.006,134.004,4.004,167.998,26.006,250
		c72.998,272.002,200.996,484.004,432.002,715.996c462.998,463.008,1206.992,828.008,2050.996,1008.008
		c282.998,60,687.998,116.992,925,128.994C11499.003,11360.994,11795.995,11359.002,11904.999,11349.998z"/>
	<path d="M3440,11029.002c-255-21.006-573.999-70-777.998-120c-271.001-66.006-532.002-179.004-628.003-273.008
		c-41.997-40-53.999-58.994-53.999-81.992c0-35,33.999-71.006,95-102.002c66.001-32.002,443.999-131.006,568.999-147.998
		c70-10,56.001,10.996-16.001,25c-118.999,22.998-406.997,100-486.997,130.996c-91.001,35-138.003,77.998-121.001,110
		c50,92.998,382.998,230.996,698.999,289.004C3006.001,10912,3200,10929.998,3545,10937c235,3.994,340,2.002,485-11.006
		c470.996-41.992,894.004-137.998,1134.004-256.992C5237.001,10632,5260,10612.996,5260,10587c0-62.002-170-196.006-470-369.004
		c-122.002-70-140-80-480-267.998c-487.998-270-655-377.002-825-530.996C3392.998,9337,3366,9307,3320,9237
		c-88.999-134.004-75-274.004,37.002-382.998C3425,8787,3490,8752,3840,8594.002c142.002-64.004,290-143.008,355-190
		c97.998-69.004,177.998-94.004,190.996-59.004c10,25-41.992,100-97.998,140.996c-97.002,73.008-180.996,120-467.998,261.006
		c-291.001,143.994-362.002,190-396.001,255.996c-36.001,67.998,8.003,157.998,133.999,279.004
		C3755,9469.998,4007.001,9634.998,4625,9979.998c172.002,95.996,415,240,495,292.998c247.998,165,317.998,272.002,259.004,395
		c-46.006,95-228.008,182.002-531.006,256.006c-232.002,55.996-362.998,76.992-637.998,100.996
		C4030.996,11040.994,3616,11042.996,3440,11029.002z"/>
	<path d="M13754.002,10887c-59.004-44.004-110-95-240-242.002c-187.002-212.002-281.006-315.996-435-485
		c-63.008-69.004-157.002-172.002-209.004-230c-412.001-455.996-672.001-707.998-1094.999-1060.996
		c-257.998-215-607.002-473.008-769.004-567.002l-37.998-22.998l32.998,42.998c54.004,68.994,277.002,293.994,362.002,365.996
		c42.002,36.006,77.002,71.006,77.002,79.004c0,25-35,12.998-89.004-31.006c-98.994-81.992-475.996-296.992-552.998-315.996
		c-30.996-7.998-47.998-17.998-47.998-27.002c0-10.996,7.002-13.994,27.998-8.994c35,8.994,185,80,302.002,145l92.002,50.996
		l-126.006-130c-140-145-163.994-180-146.992-215.996c12.998-29.004,46.992-31.006,93.994-8.008
		c167.998,85,666.006,438.008,982.002,695c332.002,272.002,399.004,332.002,715,649.004
		c349.999,349.004,550.995,560,884.003,924.004c93.994,101.992,171.992,183.994,173.994,180.996c7.002-5.996-95-230-165.996-365
		c-237.002-452.002-742.002-1245-1102.997-1730c-14.004-19.004-57.002-77.998-96.006-130c-165-225.996-323.994-440-407.998-550
		c-49.004-65-130-170.996-180-235.996c-182.002-239.004-465.996-590-745-919.004c-289.004-340.996-319.004-382.998-327.998-477.998
		c-2.998-36.006,0-52.002,12.998-67.002c22.002-24.004,37.998-25,105.996-2.998c87.002,27.998,168.008,115.996,553.008,597.998
		c372.998,465.996,810,1075,1285.996,1789.999c534.999,802.002,1107.997,1797.998,1209.003,2100.996
		c48.994,145,40,206.006-35,234.004C13817.996,10934.002,13817.996,10934.002,13754.002,10887z"/>
	<path d="M14757.996,10807c-35.996-56.006-185-300-330.996-542.002c-330-550-479.004-792.002-662.002-1075
		c-12.998-19.004-97.998-152.002-190-295c-490-759.003-829.999-1244.999-1507.997-2154.003
		c-194.004-258.994-327.998-451.992-367.002-528.994c-59.004-112.998,35-220,132.002-149.004
		c17.002,12.002,65.996,74.004,107.998,139.004c42.998,63.994,159.004,230,257.002,370
		c475.996,672.998,778.993,1130.996,1100.995,1657.997s766.006,1295.996,1151.006,1994.004
		c175.996,316.992,296.992,525,362.998,622.998c27.998,40.996,35,62.998,20.996,62.998
		C14827.996,10909.998,14794.998,10864.002,14757.996,10807z"/>
	<path d="M3482.998,10092c-15-10-75-112.998-68.999-119.004c8.999-8.994,27.002,9.004,48.003,50
		C3488.999,10077,3496,10057,3475,9979.002c-32.998-130-158.999-398.008-352.998-749.004c-96.001-175-482.002-852.002-607.002-1065
		c-116.001-199.004-162.998-325-120-325c30,0,133.999,150.996,238.999,347.998c183.999,346.005,221.001,417.998,412.002,790
		C3337.998,9549.002,3461,9817,3495,9962C3517.998,10060.994,3513.999,10110.994,3482.998,10092z"/>
	<path d="M14472,9342.996c-35-30.996-511.006-657.002-645-848.994c-122.998-176.006-127.998-254.004-16.006-254.004
		c65,0,133.008,24.004,325,112.998c224.004,105,377.002,164.004,512.002,199.004c166.006,42.002,217.998,33.994,372.002-57.998
		c79.004-47.002,194.004-83.008,322.998-100c176.006-24.004,710-24.004,957.002,0.996c57.998,5.996,290,22.998,400,30
		c347.998,20.996,434.004,25.996,880,45c102.002,4.004,455,7.002,785,5c617.998-2.998,677.998-5.996,927.998-50
		c112.998-20,269.004-70,290-92.998c42.998-47.998,0-131.006-142.998-277.001c-67.998-70-90-99.004-95-127.998
		c-15-77.002,59.004-152.998,137.998-142.998c76.006,8.994,289.004,196.992,359.004,315.996
		c87.998,149.003,72.998,337.998-36.006,445.996c-40,40-141.992,96.006-225.996,124.004c-79.004,25-250,55.996-385,69.004
		c-149.004,13.994-625,5-920-18.008c-352.002-27.998-502.002-42.998-1030-105.996c-605-70.996-1067.998-122.002-1245-135
		c-164.004-12.998-487.998-15.996-600-5c-149.004,14.004-209.004,32.002-359.004,107.002
		c-131.992,67.002-148.994,72.998-215.996,75.996c-137.998,7.002-329.004-57.002-700-235.996
		c-205.996-100-325.996-144.004-342.002-127.998c-8.994,7.998,15,60,67.002,145c105.996,173.994,574.004,823.994,635,880.996
		C14524.998,9357,14512.996,9377.996,14472,9342.996z"/>
	<path d="M5635,9102c-60-21.006-184.004-91.006-315.996-179.004C5080,8764.002,4830.996,8487.996,4830,8382
		c0-39.004,29.004-81.006,72.998-104.004c37.002-20,57.002-22.998,162.002-22.998c102.998,0,134.004,4.004,220,29.004
		c272.002,80,562.002,240.996,607.998,338.994c47.998,100-8.994,177.002-215,291.006c-107.998,58.994-102.998,65,44.004,70
		c125.996,3.994,260-8.008,397.002-34.004c212.998-42.002,225-72.002,115.996-290c-62.002-125-67.998-155-29.004-164.004
		c25-6.992,42.002,2.002,232.002,118.008c197.998,120.996,431.006,240.996,442.998,227.998c4.004-4.004,10-52.002,14.004-107.002
		c7.998-127.998,19.004-167.002,55.996-210c56.006-64.004,163.007-100,329.003-112.002c240.996-17.002,232.002,45-10,67.998
		c-175,16.006-277.001,61.006-297.998,132.002c-6.006,17.998-12.998,77.002-15,132.002
		c-9.004,160.996-27.002,185.996-112.002,155.996c-97.998-35-212.998-96.992-445.996-242.998
		c-70-42.998-129.004-77.998-132.002-77.998s15,42.998,40,95.996c32.002,67.002,47.002,113.008,50,155
		c5.996,59.004,5,60-32.998,97.002C6300,8950.994,6262.998,8972,6230,8982c-137.998,42.998-410,68.994-585,57.002
		c-49.004-4.004-92.002-5-94.004-3.008c-6.992,7.002,83.008,43.008,137.002,55C5715.996,9097.996,5740,9107,5740,9112
		C5740,9124.998,5689.003,9120.994,5635,9102z M5560.996,8909.998c27.002-20.996,78.008-54.004,112.002-72.002
		c34.004-17.998,86.006-55.996,115-85c45-42.002,52.998-55,47.002-75c-32.998-108.994-402.002-307.998-674.004-362.998
		c-141.992-29.004-270.996-4.004-278.994,52.998C4872.998,8432,4960,8559.002,5120.996,8717
		c127.002,123.994,137.002,132.998,269.004,222.002l105,70.996l7.998-30C5507.998,8960.994,5530,8934.998,5560.996,8909.998z"/>
</g>
</svg>
